<?xml version="1.0" encoding="UTF-8" standalone="no"?>
<!-- Created with Inkscape (http://www.inkscape.org/) -->

<svg
   width="27.869143mm"
   height="16.120052mm"
   viewBox="0 0 27.869143 16.120052"
   version="1.1"
   id="svg17573"
   inkscape:version="1.1.2 (0a00cf5339, 2022-02-04)"
   sodipodi:docname="drawing-3.svg"
   xmlns:inkscape="http://www.inkscape.org/namespaces/inkscape"
   xmlns:sodipodi="http://sodipodi.sourceforge.net/DTD/sodipodi-0.dtd"
   xmlns="http://www.w3.org/2000/svg"
   xmlns:svg="http://www.w3.org/2000/svg">
  <sodipodi:namedview
     id="namedview17575"
     pagecolor="#ffffff"
     bordercolor="#666666"
     borderopacity="1.0"
     inkscape:pageshadow="2"
     inkscape:pageopacity="0.0"
     inkscape:pagecheckerboard="0"
     inkscape:document-units="mm"
     showgrid="false"
     fit-margin-top="0"
     fit-margin-left="0"
     fit-margin-right="0"
     fit-margin-bottom="0"
     inkscape:zoom="0.75187991"
     inkscape:cx="-36.57499"
     inkscape:cy="144.30496"
     inkscape:window-width="1920"
     inkscape:window-height="1016"
     inkscape:window-x="0"
     inkscape:window-y="27"
     inkscape:window-maximized="1"
     inkscape:current-layer="layer1" />
  <defs
     id="defs17570" />
  <g
     inkscape:label="Layer 1"
     inkscape:groupmode="layer"
     id="layer1"
     transform="translate(-99.727748,-99.620797)">
    <path
       d="m 111.4564,115.6801 c -0.12248,-0.0274 -0.24799,-0.0594 -0.37509,-0.0853 l -0.34367,-0.0807 -0.0793,-0.0213 -0.14122,-0.0381 -0.0216,-0.005 -0.0504,-0.0168 -0.18661,-0.0594 c -0.24597,-0.0746 -0.47682,-0.16115 -0.697,-0.2364 -0.87583,-0.33311 -1.60078,-0.68238 -2.1981,-0.98869 -1.18953,-0.62328 -1.85089,-1.10156 -1.85292,-1.09623 0.002,-0.005 0.69902,0.40303 1.91647,0.91345 0.61357,0.25787 1.3502,0.53205 2.22554,0.79525 0.22062,0.064 0.44887,0.13404 0.69341,0.18811 l 0.18257,0.0487 0.0951,0.0213 h 0.008 c 0.20692,0.0594 0.0591,0.0168 0.10519,0.032 h 0.0122 l 0.0202,0.005 0.0375,0.005 0.34166,0.0533 c 0.25217,0.0426 0.49051,0.0807 0.74268,0.11272 0.25016,0.0381 0.50219,0.064 0.76459,0.0975 1.7416,0.19345 3.69111,0.23107 5.69909,0.0853 0.84384,-0.14013 1.67755,-0.31697 2.50972,-0.50508 -0.15303,0.0168 -0.30953,0.0381 -0.46256,0.0533 -2.90521,0.28483 -5.92327,0.10814 -8.58447,-0.46747 -0.16269,-0.0381 -0.32941,-0.0701 -0.49815,-0.11271 l -0.2405,-0.0594 -0.11528,-0.0274 -0.0576,-0.0168 -0.0807,-0.0213 -0.0137,-0.005 -0.0346,-0.005 c -0.33964,-0.10205 -0.65723,-0.21492 -0.96085,-0.33312 -0.61559,-0.23106 -1.1855,-0.48361 -1.7177,-0.74696 -1.06647,-0.52656 -1.98001,-1.08541 -2.71865,-1.61741 -1.48743,-1.06394 -2.24384,-2.03652 -2.24384,-2.02578 0,-0.0107 0.81444,0.90279 2.33331,1.84846 0.75638,0.47828 1.68416,0.97255 2.7522,1.42935 0.53634,0.22573 1.10409,0.44065 1.70957,0.63943 0.30607,0.10205 0.61761,0.19344 0.9476,0.2795 l 0.062,0.0168 h 0.0137 l 0.0533,0.0168 h 0.006 0.0303 l 0.11528,0.0213 0.23834,0.0487 c 0.16268,0.032 0.32782,0.0594 0.49051,0.0914 2.62715,0.44065 5.58013,0.51041 8.4213,0.21492 1.42383,-0.15582 2.81776,-0.39222 4.13642,-0.69853 1.11431,-0.25788 2.17267,-0.56967 3.15125,-0.8973 -0.1124,0.005 -0.22825,0.005 -0.34166,0.005 -0.33546,0.10206 -0.68274,0.20959 -1.0401,0.31164 -1.43004,0.39771 -3.02824,0.71468 -4.71848,0.89198 -1.6857,0.17729 -3.4588,0.22573 -5.22836,0.10814 -0.88145,-0.0533 -1.765,-0.15079 -2.63274,-0.2955 -0.43518,-0.064 -0.86416,-0.1447 -1.29127,-0.23106 -0.21053,-0.0427 -0.42091,-0.0914 -0.63346,-0.14013 l -0.31168,-0.0807 -0.15707,-0.032 -0.0778,-0.0213 -0.0317,-0.0107 -0.0202,-0.005 -0.0375,-0.0107 c -0.82611,-0.26335 -1.60231,-0.59114 -2.3389,-0.9404 -0.73505,-0.3546 -1.42586,-0.74148 -2.06339,-1.14985 -1.27701,-0.81672 -2.33535,-1.74098 -3.04602,-2.69208 -0.35736,-0.47828 -0.61962,-0.95107 -0.79254,-1.40239 -0.17076,-0.45132 -0.24814,-0.85968 -0.2699,-1.19828 -0.0245,-0.3386 0,-0.60714 0.0216,-0.77911 0.0259,-0.17729 0.0476,-0.26868 0.0476,-0.26868 0,0 -0.0159,0.0914 -0.0303,0.26868 -0.0137,0.17197 -0.0216,0.43533 0.0173,0.76844 0.0418,0.32779 0.13689,0.72549 0.32581,1.15 0.18459,0.42451 0.46255,0.8705 0.82813,1.31115 0.73058,0.88131 1.79701,1.72487 3.06992,2.46642 0.63951,0.36541 1.3283,0.71467 2.05525,1.03164 0.73101,0.31164 1.49912,0.60181 2.29569,0.82221 l 0.0735,0.0213 h 0.0142 c -0.002,0 -0.002,0 0,0 l 0.01,0.0108 h 0.0375 l 0.15706,0.032 0.30751,0.0701 c 0.20491,0.0381 0.41328,0.0807 0.61962,0.11881 0.41688,0.0701 0.84183,0.13404 1.26678,0.18811 0.84787,0.10814 1.7116,0.18811 2.57782,0.22573 1.7294,0.0746 3.46084,0.0168 5.11093,-0.16663 1.11994,-0.11272 2.20013,-0.27935 3.22293,-0.47828 -0.16067,-0.0213 -0.31976,-0.0381 -0.48043,-0.0533 -0.0317,0.005 -0.0591,0.0108 -0.0908,0.0108 -1.29069,0.19878 -2.63884,0.31698 -3.99714,0.3546 -1.35827,0.0381 -2.72627,-0.0168 -4.049,-0.1508 -1.32268,-0.14013 -2.60121,-0.37073 -3.78465,-0.65557 -0.14899,-0.0381 -0.29223,-0.0746 -0.43517,-0.1188 l -0.22004,-0.0594 -0.0576,-0.0108 -0.0274,-0.0107 h -0.0142 l -0.006,-0.005 c -0.0418,-0.0108 0.0476,0.0168 0.0375,0.005 l -0.10087,-0.0274 c -0.26644,-0.0914 -0.5323,-0.19345 -0.79052,-0.30098 -0.51645,-0.20959 -1.00696,-0.44066 -1.46354,-0.67705 -0.91344,-0.46747 -1.68568,-0.95641 -2.29366,-1.40254 -0.60954,-0.44066 -1.04414,-0.83288 -1.3283,-1.11771 -0.28416,-0.27402 -0.41688,-0.44065 -0.41688,-0.44065 0,0 0.149,0.15079 0.44829,0.3977 0.29987,0.25254 0.76257,0.6018 1.38825,0.98336 0.6238,0.38155 1.41173,0.81139 2.33128,1.20909 0.45651,0.19878 0.94702,0.39222 1.45946,0.56419 0.25218,0.0914 0.51443,0.17196 0.77424,0.24173 l 0.0778,0.0274 0.0548,0.0108 0.22623,0.0487 0.42495,0.0807 c 1.16561,0.23106 2.41872,0.3977 3.71348,0.48894 1.29069,0.096 2.62307,0.1188 3.95189,0.0701 0.53777,-0.0213 1.07411,-0.0487 1.60841,-0.0914 -0.15505,-0.0426 -0.30607,-0.096 -0.46112,-0.15583 -0.6176,0.0168 -1.23276,0.0168 -1.84071,-0.005 -2.15439,-0.064 -4.19794,-0.35459 -5.91718,-0.76295 -0.21658,-0.0533 -0.42696,-0.10815 -0.63187,-0.16116 -0.20232,-0.0533 -0.40867,-0.10814 -0.58965,-0.16663 l -0.29987,-0.0914 -0.0778,-0.0213 h -0.0202 c 0.20087,0.0487 0.0533,0.0108 0.0994,0.0213 h -0.004 l -0.008,-0.005 -0.0303,-0.0108 -0.12248,-0.0487 c -0.16067,-0.0594 -0.32379,-0.12338 -0.48043,-0.18811 -0.63547,-0.27402 -1.1976,-0.56419 -1.64602,-0.81673 -0.89774,-0.50508 -1.37456,-0.84902 -1.37456,-0.84369 0,-0.005 0.5104,0.26869 1.43969,0.66091 0.46457,0.19344 1.0365,0.41369 1.67195,0.61795 0.15908,0.0533 0.31975,0.10205 0.48086,0.14013 l 0.0807,0.0274 h 0.0117 l 0.0404,0.0107 0.15649,0.032 0.14482,0.032 c 0.18099,0.0381 0.38128,0.0746 0.58417,0.10815 0.2003,0.0381 0.40867,0.0746 0.62323,0.11271 1.69585,0.27935 3.68553,0.4568 5.78246,0.48361 0.0403,0 0.0778,0 0.11672,0 -0.11095,-0.0701 -0.22061,-0.1447 -0.32782,-0.21492 -0.63951,-0.44598 -2.39483,-2.69746 -2.77203,-1.08541 -0.15706,-1.36492 -1.40755,-4.3847 -2.42278,-1.53142 -0.19065,0.54271 -0.15044,1.11238 0.0317,1.66039 -0.20837,-0.40837 -0.39296,-0.82755 -0.55824,-1.25739 -0.25016,-0.65557 -1.23276,-3.70228 -1.90225,-2.17623 1.04875,-4.88982 -4.33061,-4.21277 -7.14635,-3.77752 -1.19962,0.18811 -2.41668,0.16664 -1.92663,-1.45082 0.12537,-0.41918 1.06446,-0.49976 0.84442,-1.026318 -0.31414,-0.757626 -1.56876,0.177298 -1.84683,0.451318 -2.916896,2.90702 -1.06647,8.1676 1.06244,10.76834 2.47007,3.02523 5.82974,4.28261 9.438,4.61039 -0.0937,-0.0168 -0.19064,-0.0381 -0.28214,-0.0594"
       style="fill:#392c2f;fill-opacity:1;fill-rule:nonzero;stroke:none;stroke-width:0.522644"
       id="path14437" />
  </g>
</svg>
