<?xml version="1.0" encoding="UTF-8" standalone="no"?>
<!-- Created with Inkscape (http://www.inkscape.org/) -->

<svg
   width="96.976906mm"
   height="65.149239mm"
   viewBox="0 0 96.976906 65.149239"
   version="1.1"
   id="svg15606"
   inkscape:version="1.1.2 (0a00cf5339, 2022-02-04)"
   sodipodi:docname="drawing-1.svg"
   xmlns:inkscape="http://www.inkscape.org/namespaces/inkscape"
   xmlns:sodipodi="http://sodipodi.sourceforge.net/DTD/sodipodi-0.dtd"
   xmlns="http://www.w3.org/2000/svg"
   xmlns:svg="http://www.w3.org/2000/svg">
  <sodipodi:namedview
     id="namedview15608"
     pagecolor="#ffffff"
     bordercolor="#666666"
     borderopacity="1.0"
     inkscape:pageshadow="2"
     inkscape:pageopacity="0.0"
     inkscape:pagecheckerboard="0"
     inkscape:document-units="mm"
     showgrid="false"
     inkscape:zoom="0.75187991"
     inkscape:cx="0.66499981"
     inkscape:cy="346.4649"
     inkscape:window-width="1920"
     inkscape:window-height="1016"
     inkscape:window-x="0"
     inkscape:window-y="27"
     inkscape:window-maximized="1"
     inkscape:current-layer="layer1"
     fit-margin-top="0"
     fit-margin-left="0"
     fit-margin-right="0"
     fit-margin-bottom="0" />
  <defs
     id="defs15603" />
  <g
     inkscape:label="Layer 1"
     inkscape:groupmode="layer"
     id="layer1"
     transform="translate(-83.200683,-84.427625)">
    <path
       d="m 113.46171,106.83427 c 0.0778,0.0213 0.11383,0.032 0,0 z m 32.7808,-5.51851 c -2.86554,1.50459 -5.64774,3.13808 -8.42383,4.81997 -1.45133,0.87582 -2.76795,1.68187 -4.20353,2.4449 -1.38623,0.73615 -2.80404,1.49926 -4.27927,2.00966 -4.3052,1.47231 -8.9576,2.3858 -13.49104,1.76786 -1.81887,-0.25254 -3.63774,-0.71467 -5.31377,-1.52074 -1.61857,-0.78443 -3.33629,-2.04189 -4.28739,-3.67004 -1.00653,-1.72486 -1.51082,-3.69691 -1.22311,-5.85703 0.0403,-0.29017 0.0937,-0.58566 0.16067,-0.88664 0.0519,-0.21492 0.10951,-0.435172 0.17277,-0.650244 0.0476,-0.161152 0.0533,-0.177298 0.0202,-0.04265 0.0346,-0.118808 0.072,-0.231066 0.10519,-0.343933 0.18099,-0.515899 0.42898,-0.999507 0.75695,-1.450823 0.46817,-0.660906 1.19112,-1.284189 2.15031,-1.504592 0.10951,-0.02742 0.22061,-0.04874 0.33762,-0.0594 0.12104,-0.02132 0.19871,-0.02132 0.2405,-0.03199 0.0476,0 0.11096,0 0.20232,0 0.16874,0.01074 0.34165,0.02133 0.52264,0.0594 0.40319,0.08073 0.80018,0.21492 1.19112,0.488939 0.70306,0.494423 1.29473,1.440009 1.29891,2.391171 0.002,0.924262 -0.6532,2.047292 -1.66993,2.138632 -0.46674,0.0426 -1.02685,-0.16664 -1.30294,-0.66624 -0.25016,-0.4568 -0.13401,-1.241235 0.39901,-1.424016 0.24251,-0.08073 0.48705,0.07464 0.51241,0.21492 0.0216,0.123377 -0.0937,0.06397 -0.28776,0.04874 -0.58764,-0.04874 -0.42092,1.203606 0.12968,1.413196 0.59931,0.22574 1.22715,-0.17197 1.4854,-0.65024 0.34714,-0.644757 0.25016,-1.273524 -0.0142,-1.778593 -0.0548,-0.112715 -0.0749,-0.144702 -0.0807,-0.150794 -0.004,-0.01075 -0.0216,-0.03808 -0.0749,-0.102053 -0.10375,-0.140132 -0.21255,-0.247211 -0.34569,-0.36541 0.22825,0.198775 -0.15304,-0.108145 -0.22062,-0.150794 -0.0634,-0.03808 -0.39296,-0.171966 -0.31168,-0.150794 -0.15866,-0.04874 -0.32178,-0.0853 -0.47841,-0.102053 -0.0375,0 -0.15909,-0.0054 -0.18099,-0.0054 -0.0994,0.0054 -0.20433,0.01676 -0.29987,0.03199 -0.1124,0.01676 -0.22623,0.04265 -0.33546,0.07464 -0.0202,0.0054 -0.036,0.01074 -0.049,0.01676 -0.0159,0.01074 -0.0375,0.01074 -0.0677,0.02133 -0.25217,0.108145 -0.51443,0.241728 -0.7447,0.42984 -0.15505,0.134039 -0.17494,0.150794 -0.0677,0.04265 -0.37105,0.343932 -0.4408,0.4568 -0.24396,0.24188 -0.11672,0.134039 -0.23228,0.27935 -0.332,0.435323 -0.19828,0.311641 -0.35131,0.666236 -0.44483,1.031646 -0.0937,0.365412 -0.13257,0.746962 -0.12105,1.117702 0.004,0.0594 0.0102,0.18263 0.0202,0.26869 0.0102,0.0914 0.0216,0.18263 0.0375,0.26336 0.0634,0.37607 0.16874,0.72533 0.30607,1.05312 0.0519,0.11881 0.10375,0.24188 0.16269,0.3546 0.24857,0.4568 0.5444,0.85434 0.86214,1.19828 0.008,0.0107 0.0117,0.0168 0.0202,0.0213 0.0677,0.064 0.13113,0.12947 0.19828,0.18811 0.16874,0.1508 0.34166,0.29017 0.51645,0.42451 0.35535,0.25788 0.70104,0.51042 1.05235,0.73082 h 0.002 c 0.0663,0.0381 0.1268,0.064 0.19064,0.0975 0.18243,0.096 0.36543,0.18263 0.54599,0.26869 0.37163,0.16664 0.74268,0.31697 1.11028,0.46746 0.40304,0.16116 0.81026,0.31698 1.22109,0.44599 0.0102,0.005 0.0202,0.005 0.0346,0.0108 0.0137,0.005 0.0317,0.0108 0.0447,0.0108 0.1967,0.0533 0.39339,0.10205 0.58605,0.15079 1.58046,0.42451 3.197,0.62328 4.82525,0.71467 0.20433,0.0168 0.41327,0.0274 0.61962,0.032 0.0432,0 0.085,0 0.13113,0 0.53979,-0.005 1.08031,-0.0107 1.61808,-0.0381 1.28507,-0.064 2.57173,-0.18811 3.84667,-0.36541 1.22916,-0.17196 2.45023,-0.40303 3.65756,-0.69319 1.17526,-0.27935 2.36891,-0.47295 3.54471,-0.77378 2.25758,-0.56966 4.50752,-1.25205 6.87439,-2.02577 2.40448,-0.78459 4.75406,-1.75175 7.15042,-2.56313 0.0533,-0.0168 0.0836,0.0594 0.0346,0.0807"
       style="fill:#392c2f;fill-opacity:1;fill-rule:nonzero;stroke:none;stroke-width:0.522644"
       id="path14415" />
    <path
       d="m 151.33006,127.69926 c -0.42898,-0.95107 -1.03088,-1.94517 -2.6251,-1.97204 -0.8937,-0.0108 -2.04154,0.58033 -2.33738,1.70875 -0.26644,1.03164 0.66487,2.43953 1.67602,2.14399 0.28575,-0.0746 0.60752,-0.34927 0.69283,-0.72534 0.0793,-0.34393 -0.0879,-0.75763 -0.37725,-0.88131 -0.25621,-0.10205 -0.57193,0.0746 -0.56573,0.30631 0.002,0.18811 0.26384,0.16115 0.33748,0.28483 0.15245,0.26869 -0.64557,0.61263 -1.0329,0.16664 0.0303,0.0381 -0.23431,-0.48894 -0.23229,-0.47828 -0.002,-0.0107 -0.0259,-0.40836 -0.008,-0.5159 0.0245,-0.13404 0.0951,-0.32245 0.10951,-0.35459 0.0447,-0.096 0.10087,-0.18811 0.16067,-0.26869 -0.0994,0.13404 -0.0173,0.0168 0.0836,-0.0975 0.0117,-0.0107 0.13689,-0.12947 0.25822,-0.22025 0.0634,-0.032 0.2405,-0.12338 0.28575,-0.1447 0.16672,-0.064 0.32783,-0.0975 0.49671,-0.10206 -0.32783,0.0168 -0.19871,0.0274 -0.0649,0.0168 0.0591,0 0.23229,0.0108 0.26428,0.0108 0.25779,0.0274 0.49815,0.11272 0.7264,0.24721 -0.0735,-0.0426 0.22263,0.1508 0.26226,0.18263 0.18041,0.1508 0.32941,0.32779 0.46054,0.52656 0.10663,0.16664 0.18863,0.34394 0.25621,0.53738 0.0102,0.0213 0.0137,0.0381 0.0202,0.0533 0.008,0.0274 0.0159,0.0533 0.0274,0.096 0.1124,0.42984 0.1124,0.84902 0.0274,1.26271 0.0476,-0.24188 -0.13257,0.44066 -0.13113,0.42984 -0.0893,0.24173 -0.20894,0.46213 -0.34771,0.66624 -0.0317,0.0487 -0.27191,0.33312 -0.30607,0.37074 -0.15043,0.15079 -0.3137,0.29016 -0.49007,0.40836 -0.35593,0.24173 -0.73303,0.39222 -1.13003,0.49427 0.68534,-0.1773 0.0461,-0.0168 -0.0807,0.0108 -0.19064,0.0381 -0.37509,0.0594 -0.56227,0.064 -0.18042,0.0108 -0.35333,0 -0.52813,-0.0168 -0.0259,-0.005 -0.0591,-0.0108 -0.10375,-0.0108 -0.41486,-0.0701 -0.80219,-0.19344 -1.16763,-0.36008 -0.0793,-0.032 -0.15865,-0.0701 -0.23632,-0.11271 0.006,0.005 -0.25015,-0.14014 -0.30549,-0.1773 -0.29583,-0.18263 -0.56991,-0.38156 -0.82813,-0.59099 -0.25621,-0.20959 -0.48245,-0.43533 -0.70508,-0.65558 -0.10663,-0.10814 -0.21053,-0.22573 -0.31168,-0.33312 -0.0548,-0.064 -0.11384,-0.13403 -0.16673,-0.19877 -0.002,0 -0.006,0 -0.0101,-0.005 -0.35939,-0.44598 -0.67712,-0.90811 -0.96489,-1.36491 -0.0692,-0.11881 -0.13689,-0.23107 -0.20289,-0.34394 -0.0137,-0.0274 -0.0677,-0.12337 -0.10087,-0.18811 -0.11095,-0.22573 -0.21254,-0.46213 -0.30952,-0.69319 -0.12105,-0.30098 -0.22825,-0.61263 -0.33143,-0.9296 -0.0533,-0.15582 -0.10231,-0.31697 -0.149,-0.48361 0.002,0.0107 -0.0879,-0.32778 -0.0879,-0.31697 -0.15706,-0.64476 -0.24857,-1.30566 -0.33762,-1.96668 -0.0403,-0.30631 -0.0677,-0.61262 -0.0879,-0.91893 -0.0122,-0.15582 -0.0173,-0.30631 -0.0216,-0.4568 0,0 -0.002,-0.25787 -0.002,-0.29549 0.006,-0.61795 0.0634,-1.23591 0.15304,-1.84845 0.41687,-2.92852 1.76905,-5.8248 3.52437,-8.24284 1.66637,-2.29445 3.6957,-4.32023 5.88006,-6.06122 0.0259,-0.0213 0,-0.064 -0.0303,-0.0533 -3.79482,2.17088 -7.34309,5.20148 -9.75215,9.0166 -1.36187,2.16012 -2.26164,4.57816 -2.51175,7.16815 -0.25621,2.64909 0.23027,5.55075 1.48743,7.87207 1.01676,1.89681 2.48023,3.61093 4.3723,4.54592 0.83015,0.40836 1.77362,0.67172 2.69882,0.67705 1.19717,0.0107 2.27385,-0.31164 3.35764,-1.05861 1.40612,-0.95107 3.01857,-3.37988 1.9246,-5.82479"
       style="fill:#392c2f;fill-opacity:1;fill-rule:nonzero;stroke:none;stroke-width:0.522644"
       id="path14417" />
    <path
       d="m 91.370423,121.66492 c -0.45045,-0.19878 -0.88145,-0.40837 -1.28262,-0.62329 -0.83419,-0.43532 -1.55706,-0.88664 -2.14472,-1.295 -0.58965,-0.40836 -1.04054,-0.7791 -1.34199,-1.03713 -0.30607,-0.26336 -0.46674,-0.41369 -0.46674,-0.41369 0.002,-0.0108 0.67107,0.57499 1.87836,1.31114 0.6019,0.36008 1.34055,0.75763 2.18233,1.14452 0.84182,0.38155 1.79091,0.75229 2.8076,1.08008 0.0461,0.0168 0.0893,0.032 0.1369,0.0427 0.87381,0.0914 1.74922,0.1773 2.619,0.28483 -1.13564,-0.30631 -2.24994,-0.68771 -3.30222,-1.12303 -1.27498,-0.52656 -2.45633,-1.15 -3.48269,-1.80548 -1.02685,-0.65558 -1.89461,-1.3541 -2.56563,-2.00966 -0.6751,-0.65025 -1.15394,-1.25205 -1.46151,-1.68188 -0.30808,-0.43532 -0.45492,-0.69319 -0.45492,-0.69319 0,0 0.15909,0.24721 0.4885,0.65557 0.32984,0.40836 0.83217,0.97803 1.52707,1.58515 0.69282,0.60181 1.57487,1.24124 2.60732,1.84309 1.03246,0.59647 2.21386,1.14984 3.47913,1.62277 1.74312,0.66091 3.6418,1.15533 5.52828,1.49926 l 1.01057,-0.0853 c -2.0034,-0.39222 -3.97325,-0.98336 -5.67723,-1.6765 -0.92165,-0.37607 -1.76549,-0.7791 -2.50208,-1.18214 -0.73663,-0.40303 -1.36793,-0.81139 -1.87429,-1.16599 -1.01316,-0.72 -1.54131,-1.24123 -1.54334,-1.2359 0.002,-0.005 0.57034,0.46746 1.61451,1.09075 0.52264,0.31164 1.16763,0.6609 1.9124,1.01016 0.7447,0.34927 1.59062,0.6932 2.50972,1.01551 1.27081,0.45131 2.68306,0.84368 4.13643,1.16065 -0.25016,-0.15582 -0.49253,-0.32778 -0.7326,-0.51041 -0.89773,-0.27935 -1.74161,-0.58566 -2.50005,-0.88664 -1.35223,-0.55352 -2.44668,-1.11771 -3.18532,-1.55292 -0.74067,-0.43517 -1.13967,-0.72534 -1.14169,-0.72534 0.002,-0.0108 1.71568,0.93493 4.43025,1.81084 0.41068,0.13404 0.84183,0.26869 1.29069,0.3977 -1.26475,-1.19828 -2.41667,-2.58463 -3.61588,-3.61094 -1.51538,-1.28967 -3.03636,-2.36968 -5.11143,-2.05802 -1.05236,0.16115 -3.3856,1.1177 -2.68459,-1.14452 -1.09039,-0.19344 -1.29069,1.6174 -1.25308,2.47716 0.0965,2.41804 1.44574,4.21812 3.45116,5.18534 1.51335,0.73615 3.10194,1.08008 4.71391,1.30033"
       style="fill:#392c2f;fill-opacity:1;fill-rule:nonzero;stroke:none;stroke-width:0.522644"
       id="path14419" />
    <path
       d="m 104.20621,128.59125 c -2.0034,0.20959 -3.6657,0.35459 -4.829307,0.47827 -1.16158,0.12947 -1.82446,0.21492 -1.82852,0.21492 0.004,0 0.64714,-0.17196 1.79294,-0.40836 1.143707,-0.24173 2.793887,-0.53204 4.775937,-0.87582 1.61807,-0.27935 3.46489,-0.60181 5.39509,-1.06927 0.17494,-0.15582 0.34714,-0.31164 0.52611,-0.4568 -0.9231,0.18811 -1.84683,0.34393 -2.75423,0.47279 -1.43969,0.20426 -2.8437,0.34393 -4.15625,0.47828 -1.31462,0.12947 -2.54378,0.24721 -3.643837,0.37607 -1.10207,0.12947 -2.07305,0.25787 -2.87725,0.39222 -1.61044,0.26868 -2.55547,0.52123 -2.55547,0.5159 0,0.005 0.91762,-0.32779 2.50616,-0.71468 0.79399,-0.19344 1.75889,-0.39222 2.85336,-0.58566 1.091977,-0.19877 2.315007,-0.39222 3.621967,-0.58033 2.61139,-0.39222 5.56591,-0.79525 8.41519,-1.56366 0.15909,-0.0426 0.31774,-0.0853 0.47682,-0.12947 0.37524,-0.22573 0.76257,-0.41918 1.16763,-0.59647 -0.1647,0.0426 -0.32782,0.0914 -0.49469,0.14013 -1.68975,0.46746 -3.48269,0.77377 -5.27817,1.00484 -1.79295,0.23106 -3.58996,0.38688 -5.31173,0.54804 -1.71975,0.15582 -3.365767,0.33311 -4.857267,0.56418 -1.49099,0.23106 -2.82946,0.52123 -3.94122,0.84369 -1.10812,0.30631 -1.99171,0.64476 -2.59359,0.90278 -0.60334,0.25254 -0.92728,0.41918 -0.93131,0.41918 0.004,0 0.31572,-0.18263 0.90134,-0.47828 0.58821,-0.29016 1.45183,-0.68238 2.54986,-1.05327 1.09804,-0.38156 2.42838,-0.74697 3.91784,-1.05313 1.4915,-0.30631 3.135487,-0.55352 4.851167,-0.7791 1.71567,-0.22573 3.50099,-0.42984 5.27003,-0.69853 1.48946,-0.22025 2.96469,-0.48894 4.37891,-0.83287 l -1.24746,-0.0426 c -2.5453,0.42451 -5.16074,0.59115 -7.53575,0.76844 -1.29069,0.0914 -2.51379,0.18811 -3.624017,0.2955 -1.1061,0.11881 -2.101,0.24173 -2.93265,0.37607 -1.66433,0.26336 -2.67494,0.53738 -2.67494,0.53205 0,0.005 0.97901,-0.34394 2.62106,-0.73615 0.82194,-0.19345 1.8092,-0.38689 2.90723,-0.56952 1.102067,-0.18263 2.319597,-0.34926 3.600117,-0.50508 0.85969,-0.10206 1.75126,-0.20959 2.6551,-0.31698 -0.92771,-0.12337 -1.86054,-0.26869 -2.79387,-0.40836 -1.47574,0.0701 -2.764397,0.15079 -3.739417,0.2364 -1.21345,0.10814 -1.93782,0.2041 -1.93782,0.2041 0,0 0.70248,-0.18263 1.89614,-0.40303 0.53431,-0.096 1.16561,-0.20426 1.874787,-0.30631 -2.258077,-0.28483 -4.503957,-0.38689 -6.686297,0.19877 -3.21887,0.85968 -7.25972,2.83718 -7.7401,6.72753 -0.12249,0.96722 0.5042,5.30357 2.13658,3.87424 -0.84385,-0.67172 -0.94702,-1.28967 0.17839,-1.44001 1.34862,-0.18263 2.76847,1.32181 3.76888,2.03115 3.08416,2.1816 6.71782,2.29982 9.736397,-0.0213 2.3511,-1.81084 4.23758,-4.36321 6.36603,-6.53945 -1.49098,0.26336 -2.9052,0.42984 -4.17607,0.56952"
       style="fill:#392c2f;fill-opacity:1;fill-rule:nonzero;stroke:none;stroke-width:0.522644"
       id="path14421" />
    <path
       d="m 124.09176,123.96474 c -0.26226,0.19344 -0.52265,0.3977 -0.77885,0.59648 -1.69789,1.32181 -3.27021,2.66522 -4.55124,3.90111 -1.28666,1.24123 -2.27536,2.37504 -2.92503,3.20792 -0.64917,0.82206 -0.97858,1.33796 -0.98463,1.33796 0.006,0 0.26788,-0.54804 0.83577,-1.45082 0.56833,-0.89731 1.46761,-2.13863 2.69069,-3.48736 1.22152,-1.3541 2.7644,-2.81568 4.47803,-4.19127 0.53778,-0.44066 1.09803,-0.8705 1.66384,-1.28967 0.0404,-0.10206 0.0793,-0.20411 0.12104,-0.30083 -0.41731,0.27935 -0.8362,0.575 -1.25106,0.87583 -2.18437,1.55828 -4.30926,3.29391 -6.029,5.03489 -0.86373,0.86517 -1.62418,1.73562 -2.25961,2.547 -0.6375,0.81672 -1.15193,1.58516 -1.54284,2.24608 -0.39339,0.66091 -0.66343,1.21443 -0.84024,1.60129 -0.17839,0.38155 -0.26182,0.59647 -0.26182,0.59647 0,0 0.0677,-0.22025 0.21254,-0.61795 0.14684,-0.3977 0.37725,-0.97255 0.72496,-1.66576 0.34728,-0.6932 0.81387,-1.50459 1.40972,-2.36968 0.59585,-0.87049 1.3247,-1.79472 2.15642,-2.71896 1.66636,-1.8592 3.77295,-3.70765 5.98325,-5.31968 0.79816,-0.59099 1.61451,-1.14452 2.42025,-1.66576 0.0634,-0.10815 0.13113,-0.21492 0.20289,-0.32246 -0.58763,0.3546 -1.18348,0.72001 -1.78736,1.11238 -1.37816,0.89197 -2.77964,1.87533 -4.1222,2.95002 -1.3466,1.0746 -2.62916,2.2246 -3.77091,3.43898 -1.14386,1.20909 -2.13863,2.47178 -2.92911,3.71842 -0.78851,1.24123 -1.36389,2.45564 -1.74159,3.5357 -0.37725,1.06927 -0.56371,1.98817 -0.65723,2.62223 -0.0951,0.63943 -0.10808,0.99951 -0.1124,0.99951 0.004,0 -0.002,-0.35459 0.0548,-0.99951 0.0591,-0.64476 0.19266,-1.57441 0.52048,-2.68133 0.32538,-1.10156 0.84989,-2.37506 1.59622,-3.67542 0.74672,-1.30567 1.71008,-2.63835 2.82997,-3.90649 1.11994,-1.27886 2.39483,-2.49863 3.73687,-3.6163 1.32887,-1.11238 2.72678,-2.1225 4.1105,-3.02524 -0.48043,0.24188 -0.97497,0.45132 -1.47116,0.65024 -2.24385,1.44001 -4.40281,3.11121 -6.18761,4.83608 -0.92728,0.8973 -1.75533,1.81084 -2.45227,2.68134 -0.69903,0.87582 -1.27081,1.71412 -1.71008,2.4449 -0.4408,0.73615 -0.75032,1.35944 -0.95321,1.79473 -0.2003,0.43532 -0.29785,0.68238 -0.29785,0.68238 0,0 0.0793,-0.25254 0.24857,-0.70386 0.17075,-0.44598 0.43878,-1.09074 0.83375,-1.8592 0.39555,-0.76296 0.91762,-1.64427 1.57284,-2.5685 0.65521,-0.92959 1.44574,-1.90218 2.34297,-2.84791 1.06849,-1.13918 2.29367,-2.25684 3.60623,-3.29391 -0.0937,0.0381 -0.18459,0.0807 -0.28013,0.11881 -0.45852,0.19877 -0.91503,0.40303 -1.3639,0.61795 -0.56789,0.44066 -1.11027,0.88664 -1.6145,1.3273 -1.51336,1.31648 -2.71051,2.61684 -3.50506,3.60555 -0.796,0.98869 -1.20884,1.6389 -1.21086,1.63353 0.002,0 0.34728,-0.68239 1.0584,-1.74099 0.66488,-0.98336 1.66992,-2.27296 2.98044,-3.60557 -2.78981,1.63889 -5.25428,3.75603 -7.18041,6.62543 -2.84573,4.23426 -2.99875,10.20413 0.64715,13.93866 0.69902,0.71467 1.86665,1.72486 2.70848,0.82754 0.54037,-0.56951 -0.35333,-0.6341 -0.73865,-0.25787 -2.192,-1.24124 2.74456,-2.31057 3.24681,-2.45029 1.13968,-0.30098 4.20607,-1.38091 4.08661,-3.09509 0.45852,0.16664 1.26331,-0.20959 1.60842,-0.58566 0.84182,-0.92959 0.93534,-2.65448 1.07613,-3.83125 0.35174,-2.96077 -0.16269,-6.98007 1.76141,-9.33901 -0.31773,1.20894 0.56631,1.52073 1.21951,0.78991 0.55204,-0.61262 0.56371,-2.33744 0.76459,-3.41212"
       style="fill:#392c2f;fill-opacity:1;fill-rule:nonzero;stroke:none;stroke-width:0.522644"
       id="path14423" />
    <path
       d="m 135.58907,129.74654 c -0.37566,0.84902 -0.5104,1.32182 -0.51443,1.32182 0.004,0 0.072,-0.48361 0.3614,-1.37558 0.14496,-0.45132 0.34929,-0.99951 0.62178,-1.63353 0.0317,-0.0807 0.0677,-0.16115 0.0994,-0.2364 0.01,-0.5159 0.0202,-1.02631 0.0331,-1.52605 0,0 0,-0.005 0,-0.0107 l -0.0216,0.0381 c -0.55204,1.01017 -1.04414,1.95592 -1.4198,2.80492 -0.37725,0.85435 -0.62726,1.6174 -0.77223,2.25685 -0.14266,0.63943 -0.18459,1.15532 -0.19871,1.50992 -0.0117,0.36541 0,0.56418 -0.002,0.56418 0.002,0 -0.0274,-0.19344 -0.0447,-0.55885 -0.0159,-0.35459 -0.0159,-0.88131 0.0836,-1.54217 0.0951,-0.65557 0.29944,-1.45082 0.63346,-2.34281 0.32538,-0.89197 0.77626,-1.87533 1.28666,-2.9124 l 0.39094,-0.79525 0.10375,-0.20959 0.0173,-0.0381 c 0.0259,-0.45131 0.062,-0.8973 0.10663,-1.33262 -0.12536,0.25787 -0.25217,0.52123 -0.3833,0.7791 l -0.14121,0.26336 -0.14482,0.26336 -0.28359,0.50508 c -0.18862,0.34393 -0.37566,0.68238 -0.55824,1.0155 -0.72078,1.34329 -1.35424,2.65984 -1.71771,3.94408 -0.18041,0.63943 -0.29382,1.26271 -0.34166,1.86458 -0.049,0.59114 -0.0331,1.14999 0.0202,1.66039 0.11096,1.02099 0.35737,1.82696 0.54239,2.37505 0.18863,0.5427 0.31976,0.8382 0.31774,0.8382 0.002,0 -0.14684,-0.28484 -0.36543,-0.81673 -0.21457,-0.53737 -0.50435,-1.32181 -0.67107,-2.35894 -0.0821,-0.5159 -0.12537,-1.08541 -0.10519,-1.698 0.0202,-0.61262 0.10519,-1.27353 0.26384,-1.9398 0.31572,-1.33795 0.90941,-2.71358 1.59062,-4.09455 0.16874,-0.34926 0.34569,-0.69319 0.5261,-1.04246 0.17696,-0.34393 0.36544,-0.6932 0.53432,-1.03713 0.34368,-0.69853 0.65118,-1.42935 0.93333,-2.1655 0.13545,-0.35459 0.26226,-0.70385 0.38532,-1.06393 0.34511,-1.70875 0.85349,-3.3369 1.56672,-4.92205 0.29987,-0.92959 0.60551,-1.82159 0.93131,-2.64373 0.10375,-0.26335 0.20635,-0.51041 0.31371,-0.76296 -0.0432,0.0381 -0.0908,0.0807 -0.1369,0.12338 -0.32336,0.74697 -0.63129,1.53142 -0.93275,2.35355 -0.41731,1.14451 -0.81646,2.34819 -1.23521,3.54109 -0.41688,1.18747 -0.85609,2.36968 -1.35021,3.4766 -0.24857,0.55885 -0.50679,1.09075 -0.78231,1.60128 -0.0663,0.12338 -0.13545,0.25255 -0.20692,0.37608 l -0.10519,0.18811 -0.10952,0.18263 -0.4408,0.75762 c -0.57596,0.99951 -1.1061,1.97742 -1.5291,2.90703 -0.42495,0.93492 -0.73663,1.83771 -0.91704,2.6276 -0.18503,0.80058 -0.24454,1.46696 -0.26428,1.92905 -0.0159,0.4568 0,0.70934 -0.002,0.70934 0.002,0 -0.0317,-0.24721 -0.0432,-0.70934 -0.0117,-0.4568 0.004,-1.13385 0.14266,-1.94517 0.13401,-0.8114 0.39497,-1.74637 0.77222,-2.71896 0.37725,-0.97803 0.86171,-1.98817 1.39387,-3.01986 l 0.40722,-0.7791 0.10519,-0.19345 0.0908,-0.18262 c 0.0591,-0.11881 0.12537,-0.24722 0.18661,-0.37075 0.24598,-0.50508 0.47841,-1.03164 0.70306,-1.57979 0.45088,-1.09074 0.85753,-2.2622 1.26475,-3.44973 0.14122,-0.41918 0.28777,-0.84368 0.43518,-1.26819 -0.1454,0.24173 -0.28618,0.47279 -0.42495,0.69319 -0.14265,0.37608 -0.28618,0.74697 -0.42912,1.1069 -0.37365,0.94573 -0.75076,1.84844 -1.1417,2.67058 -0.19871,0.41369 -0.39699,0.80606 -0.6019,1.18213 -0.10087,0.18263 -0.20231,0.36541 -0.30347,0.53738 l -0.15101,0.25254 -0.14122,0.22574 c 0.0245,-0.005 0.0476,-0.0168 0.0692,-0.0381 -0.0418,0.0487 -0.0836,0.096 -0.12969,0.14013 -0.44282,0.72 -0.85551,1.40787 -1.21547,2.04728 -0.36904,0.66091 -0.68476,1.27886 -0.9293,1.81084 -0.49209,1.0746 -0.70103,1.81084 -0.70103,1.80547 0,0.005 0.14121,-0.74148 0.54642,-1.8592 0.20029,-0.55353 0.46659,-1.19829 0.78793,-1.89145 0.20491,-0.43533 0.43316,-0.8973 0.67553,-1.37025 -0.65925,0.2955 -1.40208,0.44065 -2.01764,0.88131 -0.55002,0.38689 -2.33535,2.41266 -0.79456,2.56312 -2.6429,0.17197 -2.1681,4.60501 -1.48894,6.24928 0.8022,1.93443 2.20216,3.14345 3.11363,4.8737 0.48647,0.91345 0.76458,2.83716 -0.16312,3.54646 -0.8241,0.62861 -1.76703,-0.67172 -1.89004,0.53204 1.92816,1.71412 3.69314,-0.94041 4.47956,-2.53625 1.81887,-3.69155 1.91444,-7.95804 1.98358,-12.0902 -0.22624,0.45132 -0.41285,0.8382 -0.55767,1.16599"
       style="fill:#392c2f;fill-opacity:1;fill-rule:nonzero;stroke:none;stroke-width:0.522644"
       id="path14429" />
    <path
       d="m 148.58753,119.1394 c 0.16471,-1.91294 1.96984,-3.01986 2.44668,-4.81459 0.57539,-2.16548 -0.59167,-4.21812 -0.94558,-6.24391 -0.10663,0.16115 -0.21038,0.33311 -0.3137,0.49442 -0.58965,0.97803 -1.0584,1.98279 -1.38219,2.89089 -0.32739,0.90279 -0.50636,1.69801 -0.59787,2.26222 -0.0893,0.56418 -0.10663,0.8973 -0.10807,0.8973 0.002,0 -0.0202,-0.33312 0.0117,-0.90278 0.036,-0.58033 0.14482,-1.40239 0.41688,-2.35357 0.26845,-0.94574 0.70507,-2.01502 1.30092,-3.04673 0.18041,-0.31164 0.37927,-0.62328 0.58763,-0.92959 -0.004,-0.0487 -0.006,-0.096 -0.006,-0.15079 -0.15101,0.19877 -0.30405,0.40303 -0.44685,0.61795 -0.8205,1.19828 -1.48743,2.55237 -1.9007,3.83124 -0.20433,0.6341 -0.3493,1.25205 -0.4408,1.81622 -0.0893,0.55885 -0.12681,1.06927 -0.13113,1.48844 -0.008,0.84369 0.0908,1.34877 0.085,1.34877 0,0 -0.0274,-0.1188 -0.0706,-0.34926 -0.0418,-0.22573 -0.0893,-0.56418 -0.11384,-0.98869 -0.0259,-0.42451 -0.0245,-0.94041 0.0332,-1.51526 0.0605,-0.58033 0.17493,-1.21975 0.35578,-1.88071 0.35736,-1.32729 0.99845,-2.75118 1.83665,-4.00856 0.2562,-0.38156 0.5323,-0.7523 0.8179,-1.10156 0.008,-0.064 0.0173,-0.11881 0.0274,-0.1773 -0.19266,0.21492 -0.38532,0.44065 -0.56991,0.67705 -0.56227,0.70934 -1.08636,1.50459 -1.52707,2.35356 -0.4408,0.84902 -0.80422,1.74637 -1.06042,2.63835 -0.25218,0.89198 -0.39901,1.7786 -0.43662,2.59536 -0.0404,0.81672 0.0288,1.5583 0.15447,2.17087 0.1196,0.61795 0.2882,1.09623 0.42091,1.41853 0.13113,0.32779 0.22465,0.49976 0.22465,0.49976 0,0 -0.0994,-0.16116 -0.25419,-0.48361 -0.14899,-0.31697 -0.34569,-0.78992 -0.49872,-1.39706 -0.15246,-0.61262 -0.25981,-1.36491 -0.25765,-2.19772 0,-0.83288 0.11096,-1.75175 0.34108,-2.67596 0.23085,-0.92427 0.57395,-1.85922 1.01114,-2.74045 0.43662,-0.88131 0.96287,-1.71412 1.54487,-2.45029 0.25822,-0.32779 0.52207,-0.62861 0.79816,-0.91893 l -0.50017,0.40303 c -0.29785,0.32246 -0.58763,0.67172 -0.86372,1.03713 -0.94356,1.23591 -1.704,2.67596 -2.17472,4.06231 -0.23834,0.68786 -0.40723,1.36491 -0.51444,1.98815 -0.10663,0.62329 -0.15245,1.19295 -0.16067,1.66578 -0.008,0.4836 0.0159,0.87049 0.0432,1.13385 0.0259,0.26869 0.0504,0.40836 0.0504,0.40836 0,0 -0.0346,-0.14013 -0.0793,-0.40303 -0.0418,-0.25787 -0.0937,-0.64476 -0.11528,-1.12304 -0.0245,-0.47827 -0.0122,-1.0586 0.062,-1.69263 0.0735,-0.63942 0.21053,-1.33795 0.42091,-2.05264 0.37509,-1.28967 1.00091,-2.63298 1.81887,-3.83126 -0.149,0.11881 -0.29382,0.24721 -0.4408,0.37074 -0.6238,0.91345 -1.128,1.86458 -1.49302,2.75657 -0.44325,1.06927 -0.68937,2.05264 -0.81228,2.7673 -0.12537,0.71468 -0.14122,1.15 -0.14698,1.15 0.006,0 -0.0202,-0.42984 0.0476,-1.15533 0.0634,-0.72 0.23791,-1.73025 0.62524,-2.84255 0.18042,-0.52656 0.41126,-1.08008 0.68735,-1.62813 -1.76549,1.83771 -3.06431,4.09453 -2.89148,6.91021 0.14266,2.38042 2.09084,5.09938 4.14609,6.02897 0.71675,0.32779 3.64993,0.29017 2.81217,-1.03713 -1.22916,1.05861 -1.99984,-0.18811 -1.87478,-1.59053"
       style="fill:#392c2f;fill-opacity:1;fill-rule:nonzero;stroke:none;stroke-width:0.522644"
       id="path14431" />
    <path
       d="m 145.65639,140.3483 c -0.83779,-1.93444 -2.09083,-3.3369 -3.42321,-4.7501 l 0.0893,0.26336 0.0677,0.18811 0.0159,0.0533 0.0202,0.0594 0.004,0.005 0.004,0.0168 0.0202,0.0533 c 0.0259,0.0807 0.0533,0.16115 0.0879,0.23639 0.1268,0.32246 0.27191,0.61796 0.37725,0.81673 l 0.16269,0.31697 -0.19872,-0.29549 c -0.12104,-0.18812 -0.29943,-0.4568 -0.46673,-0.76844 -0.0418,-0.0746 -0.0807,-0.1508 -0.1196,-0.23107 l -0.0303,-0.0594 -0.0117,-0.032 c -0.0317,-0.0746 -0.01,-0.0213 -0.0173,-0.0381 v 0 l -0.002,-0.005 -0.006,-0.0168 -0.008,-0.0213 -0.085,-0.18263 c -0.11095,-0.25254 -0.22868,-0.52123 -0.35376,-0.81139 -0.004,-0.0107 -0.008,-0.0274 -0.0137,-0.0381 -0.33762,-0.3546 -0.67711,-0.71468 -1.01459,-1.08542 0.002,0.0107 0.008,0.0274 0.01,0.0381 0.15505,0.47828 0.31211,0.94574 0.46659,1.39173 l 0.23084,0.65557 0.1124,0.32246 0.0245,0.0594 0.0122,0.032 0.0216,0.064 0.0461,0.12338 c 0.13113,0.33845 0.29785,0.67172 0.46659,0.99402 0.17076,0.31697 0.34367,0.61795 0.50636,0.90279 0.32379,0.55352 0.59585,1.03164 0.77468,1.37024 0.18041,0.33312 0.27191,0.53205 0.27191,0.52657 0,0.005 -0.10663,-0.18263 -0.30607,-0.50509 -0.20029,-0.31697 -0.49814,-0.76844 -0.85753,-1.30582 -0.17897,-0.25787 -0.36961,-0.55352 -0.56227,-0.86516 -0.19208,-0.30083 -0.38273,-0.63943 -0.54599,-0.97803 l -0.0591,-0.13404 -0.0259,-0.064 -0.036,-0.0807 -0.12969,-0.31697 -0.26788,-0.64476 c -0.17695,-0.44066 -0.35736,-0.89731 -0.5323,-1.37558 -0.13257,-0.34927 -0.26428,-0.70935 -0.39137,-1.08009 -0.23791,-0.28483 -0.47639,-0.58033 -0.69701,-0.8973 0.25823,0.97788 0.55003,1.93981 0.86013,2.85867 0.21053,0.64476 0.43056,1.26819 0.64311,1.86456 0.21658,0.58566 0.50636,1.1177 0.79658,1.62815 0.28574,0.51042 0.57754,0.98336 0.83779,1.44016 0.26024,0.4568 0.49454,0.89197 0.68519,1.30567 0.19064,0.41369 0.33546,0.80058 0.4346,1.14984 0.098,0.3546 0.14482,0.66624 0.16312,0.92426 0.0173,0.25788 0.008,0.46214 -0.004,0.591 -0.0159,0.14013 -0.0274,0.21492 -0.0274,0.21492 -0.006,0 0.0476,-0.29017 -0.0117,-0.79525 -0.0303,-0.25255 -0.0951,-0.55353 -0.20895,-0.89731 -0.11527,-0.33311 -0.27393,-0.70934 -0.48042,-1.10156 -0.20433,-0.39221 -0.45449,-0.80606 -0.73245,-1.24656 -0.28215,-0.43532 -0.58966,-0.8973 -0.90177,-1.39706 -0.31371,-0.49975 -0.63346,-1.03164 -0.88967,-1.63889 -0.23992,-0.59647 -0.48042,-1.20361 -0.71674,-1.83771 -0.46876,-1.27352 -0.90941,-2.62222 -1.26274,-3.99783 -0.17494,-0.67705 -0.32581,-1.36491 -0.45088,-2.04727 l -0.30953,-0.4836 c 0.25779,2.10638 0.77021,4.18052 1.31461,6.00211 0.14482,0.49427 0.29785,0.96722 0.44628,1.41853 l 0.22061,0.66091 0.10952,0.32245 0.0216,0.0746 0.0288,0.0853 0.0634,0.17196 c 0.17278,0.4568 0.36558,0.84369 0.55061,1.19295 0.18242,0.3546 0.35938,0.66624 0.51803,0.94574 0.31975,0.55353 0.56371,0.9887 0.7228,1.28419 0.15865,0.2955 0.23848,0.45132 0.23848,0.45132 0,0 -0.0937,-0.1447 -0.27191,-0.42451 -0.18099,-0.28483 -0.4529,-0.68771 -0.80623,-1.21443 -0.17494,-0.26335 -0.36962,-0.56418 -0.57597,-0.90278 -0.20635,-0.34394 -0.42293,-0.72534 -0.62783,-1.18214 -0.049,-0.11271 -0.0994,-0.23639 -0.14684,-0.36541 -0.002,0 0.0159,0.0427 0.006,0.0213 v 0 l -0.006,-0.0108 -0.006,-0.0213 -0.0159,-0.0381 -0.0317,-0.0746 -0.0663,-0.16115 -0.25621,-0.65024 c -0.17075,-0.44599 -0.34367,-0.91345 -0.51241,-1.40254 -0.67309,-1.92368 -1.29833,-4.15903 -1.57282,-6.46959 -0.0432,1.05312 0.23632,2.18161 0.28416,3.22406 0.002,0.0213 0.002,0.0487 0.002,0.0746 0.17494,0.8973 0.37307,1.74637 0.57596,2.53089 0.19828,0.76296 0.40305,1.4723 0.59369,2.09563 0.0937,0.31164 0.18661,0.60181 0.27407,0.8705 l 0.0634,0.20425 0.0288,0.0914 0.002,0.0107 h 0.002 c -0.0274,-0.0746 -0.006,-0.0168 -0.0137,-0.0381 l 0.002,0.0108 0.01,0.032 0.0202,0.064 c 0.0562,0.15582 0.10952,0.30631 0.16312,0.44065 0.21255,0.54804 0.40103,0.90812 0.52611,1.16066 l 0.19266,0.37074 c 0,0 -0.0793,-0.11271 -0.22667,-0.34393 -0.14698,-0.2364 -0.36097,-0.58566 -0.61717,-1.10689 -0.062,-0.13404 -0.12681,-0.27402 -0.19065,-0.43533 l -0.15101,-0.36008 c -0.10664,-0.26335 -0.22263,-0.5427 -0.34166,-0.84368 -0.23229,-0.60181 -0.48648,-1.28967 -0.73303,-2.05265 -0.0908,-0.27935 -0.18041,-0.56966 -0.2699,-0.87049 -0.0793,0.65557 -0.20231,1.31115 -0.32739,1.99891 -0.42696,2.35892 -0.7447,5.36267 0.38129,7.56577 0.72438,1.41853 2.09489,2.85329 3.57622,3.46586 0.79053,0.32246 3.53454,0.53205 3.12939,1.82158 -0.13545,0.42984 -1.45744,0.20426 -1.02281,0.85984 0.31572,0.47279 1.10408,0.10814 1.47166,-0.0853 2.82743,-1.48845 2.24385,-6.49109 1.19516,-8.9145"
       style="fill:#392c2f;fill-opacity:1;fill-rule:nonzero;stroke:none;stroke-width:0.522644"
       id="path14433" />
    <path
       d="m 146.64564,96.710748 c -1.62824,-0.419178 -3.01857,-0.983361 -3.98951,-1.493777 -0.96892,-0.49427 -1.52098,-0.913448 -1.52098,-0.908117 0,-0.0054 0.58,0.354595 1.57486,0.762958 0.99284,0.419178 2.3928,0.85968 4.01493,1.182136 1.62621,0.316973 3.47304,0.526561 5.3712,0.607137 0.49455,0.02132 0.99126,0.03199 1.48947,0.03808 l 0.31572,-0.150795 c -2.62307,-0.09596 -5.37934,-0.488939 -7.78382,-1.214427 -1.04054,-0.316972 -2.01356,-0.682382 -2.87166,-1.101559 -0.86171,-0.413695 -1.61248,-0.881309 -2.2042,-1.348771 -0.59729,-0.462132 -1.03852,-0.918779 -1.32023,-1.257381 -0.28013,-0.343933 -0.4153,-0.558853 -0.4153,-0.553522 0,-0.0054 0.14698,0.198775 0.44484,0.521231 0.29785,0.316972 0.75695,0.73615 1.36447,1.155328 0.60752,0.419177 1.36591,0.82754 2.22808,1.187466 0.86373,0.36541 1.83057,0.677052 2.86149,0.934925 2.06491,0.52123 4.38248,0.816726 6.65224,0.945739 0.40262,0.02742 0.80782,0.04265 1.21087,0.0594 -0.10952,-0.06397 -0.21601,-0.13404 -0.32134,-0.204258 -2.66883,-0.204258 -5.56234,-0.67172 -8.12797,-1.558284 -1.29675,-0.445985 -2.50769,-1.004838 -3.52082,-1.687266 -0.50637,-0.338601 -0.96287,-0.714673 -1.35021,-1.106891 -0.38733,-0.392217 -0.70305,-0.811395 -0.93894,-1.225089 -0.24252,-0.419177 -0.40161,-0.82754 -0.50075,-1.198281 -0.0994,-0.36541 -0.13833,-0.698528 -0.15505,-0.972547 -0.0288,-0.537376 0.0202,-0.838203 0.0142,-0.838203 0.006,0 -0.0274,0.30631 0.0317,0.827541 0.0303,0.268688 0.0893,0.591144 0.20491,0.945739 0.1124,0.354595 0.28777,0.741481 0.53576,1.128367 0.24857,0.386887 0.56991,0.768442 0.95926,1.133852 0.38936,0.360078 0.84385,0.703858 1.34661,1.010169 1.00451,0.612621 2.20217,1.10156 3.48269,1.499261 2.25402,0.687713 4.75966,1.074599 7.14279,1.295002 -0.0836,-0.0853 -0.1647,-0.171966 -0.24655,-0.263356 -2.12033,-0.284834 -4.24319,-0.736151 -6.06206,-1.354103 -0.93131,-0.30631 -1.78328,-0.660905 -2.51226,-1.026315 -0.73043,-0.37074 -1.33651,-0.762958 -1.79496,-1.123036 -0.46054,-0.360079 -0.77626,-0.693197 -0.97295,-0.929593 -0.19872,-0.231066 -0.28618,-0.370741 -0.28777,-0.370741 0.002,0 0.10087,0.123377 0.31572,0.338449 0.216,0.209589 0.54801,0.505085 1.0244,0.82221 0.47077,0.311641 1.08434,0.650243 1.81531,0.956401 0.73044,0.316973 1.57841,0.607137 2.50158,0.865163 1.61451,0.451317 3.4654,0.79525 5.33764,1.053123 -0.0648,-0.0853 -0.13257,-0.177297 -0.19626,-0.268688 -1.56113,-0.300979 -3.02415,-0.67172 -4.26352,-1.080083 -1.37196,-0.445985 -2.46243,-0.945739 -3.16903,-1.337956 -0.71112,-0.403032 -1.06042,-0.67172 -1.06244,-0.67172 0.002,0 0.38331,0.21492 1.11374,0.515899 0.73101,0.30631 1.827,0.682382 3.19294,1.026315 1.08016,0.274019 2.32365,0.526561 3.6479,0.757627 -1.2368,-1.886071 -2.33891,-4.051568 -3.91378,-5.255211 -2.17623,-1.676513 -3.82429,-1.16599 -6.2669,-1.042461 -1.89461,0.102053 -2.3811,-0.956401 -1.24285,-2.256842 -2.42482,-0.537376 -3.26055,3.116583 -3.1238,4.981162 0.25822,3.49273 1.99576,7.071429 5.22428,8.366416 3.43135,1.375579 6.41638,0.462132 9.58744,-0.316972 -1.72584,-0.13404 -3.39576,-0.419178 -4.87098,-0.800581"
       style="fill:#392c2f;fill-opacity:1;fill-rule:nonzero;stroke:none;stroke-width:0.522644"
       id="path14435" />
    <path
       d="m 129.13711,103.41141 c -0.12248,-0.0274 -0.24799,-0.0594 -0.37509,-0.0853 l -0.34367,-0.0807 -0.0793,-0.0213 -0.14122,-0.0381 -0.0216,-0.005 -0.0504,-0.0168 -0.18661,-0.0594 c -0.24597,-0.0746 -0.47682,-0.16115 -0.697,-0.2364 -0.87583,-0.33311 -1.60078,-0.68238 -2.1981,-0.98869 -1.18953,-0.62328 -1.85089,-1.10156 -1.85292,-1.09623 0.002,-0.005 0.69902,0.40303 1.91647,0.91345 0.61357,0.25787 1.3502,0.53205 2.22554,0.79525 0.22062,0.064 0.44887,0.13404 0.69341,0.18811 l 0.18257,0.0487 0.0951,0.0213 h 0.008 c 0.20692,0.0594 0.0591,0.0168 0.10519,0.032 h 0.0122 l 0.0202,0.005 0.0375,0.005 0.34166,0.0533 c 0.25217,0.0426 0.49051,0.0807 0.74268,0.11272 0.25016,0.0381 0.50219,0.064 0.76459,0.0975 1.7416,0.19345 3.69111,0.23107 5.69909,0.0853 0.84384,-0.14013 1.67755,-0.31697 2.50972,-0.50508 -0.15303,0.0168 -0.30953,0.0381 -0.46256,0.0533 -2.90521,0.28483 -5.92327,0.10814 -8.58447,-0.46747 -0.16269,-0.0381 -0.32941,-0.0701 -0.49815,-0.11271 l -0.2405,-0.0594 -0.11528,-0.0274 -0.0576,-0.0168 -0.0807,-0.0213 -0.0137,-0.005 -0.0346,-0.005 c -0.33964,-0.10205 -0.65723,-0.21492 -0.96085,-0.33312 -0.61559,-0.23106 -1.1855,-0.48361 -1.7177,-0.74696 -1.06647,-0.52656 -1.98001,-1.085417 -2.71865,-1.617416 -1.48743,-1.063937 -2.24384,-2.036515 -2.24384,-2.025776 0,-0.01074 0.81444,0.902785 2.33331,1.848463 0.75638,0.478277 1.68416,0.972549 2.7522,1.429349 0.53634,0.22573 1.10409,0.44065 1.70957,0.63943 0.30607,0.10205 0.61761,0.19344 0.9476,0.2795 l 0.062,0.0168 h 0.0137 l 0.0533,0.0168 h 0.006 0.0303 l 0.11528,0.0213 0.23834,0.0487 c 0.16268,0.032 0.32782,0.0594 0.49051,0.0914 2.62715,0.44065 5.58013,0.51041 8.4213,0.21492 1.42383,-0.15582 2.81776,-0.39222 4.13642,-0.69853 1.11431,-0.25788 2.17267,-0.56967 3.15125,-0.8973 -0.1124,0.005 -0.22825,0.005 -0.34166,0.005 -0.33546,0.10206 -0.68274,0.20959 -1.0401,0.31164 -1.43004,0.39771 -3.02824,0.71468 -4.71848,0.89198 -1.6857,0.17729 -3.4588,0.22573 -5.22836,0.10814 -0.88145,-0.0533 -1.765,-0.15079 -2.63274,-0.2955 -0.43518,-0.064 -0.86416,-0.1447 -1.29127,-0.23106 -0.21053,-0.0427 -0.42091,-0.0914 -0.63346,-0.14013 l -0.31168,-0.0807 -0.15707,-0.032 -0.0778,-0.0213 -0.0317,-0.0107 -0.0202,-0.005 -0.0375,-0.0107 c -0.82611,-0.26335 -1.60231,-0.59114 -2.3389,-0.940404 -0.73505,-0.354595 -1.42586,-0.741481 -2.06339,-1.149844 -1.27701,-0.816726 -2.33535,-1.740989 -3.04602,-2.692089 -0.35736,-0.478277 -0.61962,-0.95107 -0.79254,-1.402387 -0.17076,-0.451317 -0.24814,-0.85968 -0.2699,-1.198281 -0.0245,-0.338602 0,-0.607138 0.0216,-0.779104 0.0259,-0.177298 0.0476,-0.268688 0.0476,-0.268688 0,0 -0.0159,0.09139 -0.0303,0.268688 -0.0137,0.171966 -0.0216,0.435323 0.0173,0.768441 0.0418,0.327787 0.13689,0.725488 0.32581,1.149997 0.18459,0.424509 0.46255,0.870494 0.82813,1.311149 0.73058,0.881308 1.79701,1.724873 3.06992,2.466415 0.63951,0.36541 1.3283,0.714674 2.05525,1.031646 0.73101,0.311642 1.49912,0.601807 2.29569,0.822211 l 0.0735,0.0213 h 0.0142 c -0.002,0 -0.002,0 0,0 l 0.01,0.0108 h 0.0375 l 0.15706,0.032 0.30751,0.0701 c 0.20491,0.0381 0.41328,0.0807 0.61962,0.11881 0.41688,0.0701 0.84183,0.13404 1.26678,0.18811 0.84787,0.10814 1.7116,0.18811 2.57782,0.22573 1.7294,0.0746 3.46084,0.0168 5.11093,-0.16663 1.11994,-0.11272 2.20013,-0.27935 3.22293,-0.47828 -0.16067,-0.0213 -0.31976,-0.0381 -0.48043,-0.0533 -0.0317,0.005 -0.0591,0.0108 -0.0908,0.0108 -1.29069,0.19878 -2.63884,0.31698 -3.99714,0.3546 -1.35827,0.0381 -2.72627,-0.0168 -4.049,-0.1508 -1.32268,-0.14013 -2.60121,-0.370736 -3.78465,-0.655569 -0.14899,-0.03808 -0.29223,-0.07464 -0.43517,-0.118808 l -0.22004,-0.0594 -0.0576,-0.01075 -0.0274,-0.01074 h -0.0142 l -0.006,-0.0054 c -0.0418,-0.01075 0.0476,0.01676 0.0375,0.0054 l -0.10087,-0.02742 c -0.26644,-0.09139 -0.5323,-0.193443 -0.79052,-0.300979 -0.51645,-0.209589 -1.00696,-0.440655 -1.46354,-0.677051 -0.91344,-0.467463 -1.68568,-0.956402 -2.29366,-1.402539 -0.60954,-0.440655 -1.04414,-0.832872 -1.3283,-1.117706 -0.28416,-0.274019 -0.41688,-0.440654 -0.41688,-0.440654 0,0 0.149,0.150794 0.44829,0.397701 0.29987,0.252542 0.76257,0.601806 1.38825,0.983361 0.6238,0.381555 1.41173,0.811395 2.33128,1.209096 0.45651,0.198774 0.94702,0.392217 1.45946,0.564184 0.25218,0.09139 0.51443,0.171966 0.77424,0.241728 l 0.0778,0.02742 0.0548,0.01075 0.22623,0.04874 0.42495,0.08073 c 1.16561,0.231066 2.41872,0.397701 3.71348,0.488939 1.29069,0.09596 2.62307,0.118808 3.95189,0.07007 0.53777,-0.02132 1.07411,-0.04874 1.60841,-0.09139 -0.15505,-0.04265 -0.30607,-0.09596 -0.46112,-0.155821 -0.6176,0.01676 -1.23276,0.01676 -1.84071,-0.0054 -2.15439,-0.06397 -4.19794,-0.354596 -5.91718,-0.762959 -0.21658,-0.05331 -0.42696,-0.108145 -0.63187,-0.161151 -0.20232,-0.05331 -0.40867,-0.108146 -0.58965,-0.166636 l -0.29987,-0.09139 -0.0778,-0.02133 h -0.0202 c 0.20087,0.04874 0.0533,0.01075 0.0994,0.02133 h -0.004 l -0.008,-0.0054 -0.0303,-0.01075 -0.12248,-0.04874 c -0.16067,-0.0594 -0.32379,-0.123377 -0.48043,-0.188112 -0.63547,-0.274019 -1.1976,-0.564184 -1.64602,-0.816726 -0.89774,-0.505085 -1.37456,-0.849018 -1.37456,-0.843687 0,-0.0054 0.5104,0.268688 1.43969,0.660906 0.46457,0.193443 1.0365,0.413694 1.67195,0.617952 0.15908,0.05331 0.31975,0.102052 0.48086,0.140132 l 0.0807,0.02742 h 0.0117 l 0.0404,0.01074 0.15649,0.03199 0.14482,0.03199 c 0.18099,0.03808 0.38128,0.07464 0.58417,0.108146 0.2003,0.03808 0.40867,0.07464 0.62323,0.112715 1.69585,0.27935 3.68553,0.4568 5.78246,0.483608 0.0403,0 0.0778,0 0.11672,0 -0.11095,-0.07007 -0.22061,-0.144702 -0.32782,-0.21492 -0.63951,-0.445986 -2.39483,-2.697466 -2.77203,-1.085414 -0.15706,-1.364917 -1.40755,-4.384702 -2.42278,-1.531415 -0.19065,0.542707 -0.15044,1.112374 0.0317,1.660382 -0.20837,-0.408363 -0.39296,-0.827541 -0.55824,-1.257381 -0.25016,-0.655574 -1.23276,-3.702289 -1.90225,-2.176235 1.04875,-4.889817 -4.33061,-4.212766 -7.14635,-3.777519 -1.19962,0.188112 -2.41668,0.166635 -1.92663,-1.450824 0.12537,-0.419177 1.06446,-0.499753 0.84442,-1.026315 -0.31414,-0.757626 -1.56876,0.177298 -1.84683,0.451317 -2.9169,2.907024 -1.06647,8.167597 1.06244,10.768341 2.47007,3.025233 5.82974,4.282613 9.438,4.610393 -0.0937,-0.0168 -0.19064,-0.0381 -0.28214,-0.0594"
       style="fill:#392c2f;fill-opacity:1;fill-rule:nonzero;stroke:none;stroke-width:0.522644"
       id="path14437" />
    <path
       d="m 100.6737,112.90086 c -0.0519,0.575 -0.0533,1.15533 0.0375,1.75174 0.0735,-0.67705 -0.0202,-1.21443 -0.0375,-1.75174 z m 76.95727,7.72161 c -1.08838,1.94517 -2.51582,3.67542 -4.2198,5.04026 -1.58044,1.2682 -3.37745,2.44491 -5.30003,3.04673 -2.05322,0.65024 -4.11609,1.2359 -6.36808,0.82754 -2.11472,-0.37607 -4.44804,-1.62813 -5.7489,-4.21813 -0.53173,-1.06926 -0.92108,-2.48253 -0.76459,-4.00858 0.15303,-1.51525 0.91762,-3.29389 2.55598,-4.16439 1.44727,-0.77377 3.79685,-0.49442 4.57716,1.37025 0.39497,0.93492 0.19626,2.12787 -0.49873,2.75656 -0.57192,0.52123 -1.34199,0.53205 -1.88241,0.36008 -0.18459,-0.0594 -0.58966,-0.46213 -0.60752,-0.9564 -0.0142,-0.46213 0.40722,-0.8382 0.45088,-0.69853 0.0908,0.2955 0.0793,0.90279 0.58562,1.11771 0.60954,0.25254 1.43767,-0.30098 1.61249,-1.08542 0.29382,-1.33795 -1.23939,-2.57923 -2.18438,-2.63835 -2.08525,-0.12947 -3.1792,1.26271 -3.57825,3.25631 -0.2918,1.46697 0.10951,2.9715 0.79196,4.10529 0.90177,1.48844 2.11321,2.34281 3.24683,2.8694 1.1061,0.5159 2.23774,0.74148 3.34391,0.7791 4.41449,0.17197 8.76696,-1.84846 11.53746,-5.09937 2.99417,-3.50885 4.68393,-8.31806 4.45771,-13.05742 -0.20232,-4.27188 -1.98764,-8.82853 -5.57963,-11.11224 -3.17717,-2.025776 -7.09145,-2.262203 -10.67377,-1.628136 -1.91191,0.327787 -3.60776,0.811395 -5.47034,1.579776 -0.88404,0.37074 -1.74974,0.779103 -2.59157,1.24123 -0.43662,0.24188 -0.87179,0.48894 -1.30092,0.73615 -0.18661,0.10815 -0.37105,0.22026 -0.55766,0.33312 -0.0576,0.032 -0.14122,0.0853 -0.15707,0.0914 -0.0994,0.0594 -0.2003,0.12338 -0.29987,0.18812 -0.91142,0.55885 -1.5108,0.92959 -2.54377,1.59052 -0.86935,0.55886 -1.73346,1.13386 -2.58699,1.70876 -1.77159,1.20362 -3.5208,2.43416 -5.27206,3.67542 -3.5925,2.53626 -7.18449,5.07789 -10.93965,7.35084 -4.3906,2.65447 -9.11825,5.09938 -14.06498,6.41586 -1.04053,-0.032 -2.07914,-0.10205 -3.09584,-0.23107 -1.24703,-0.16115 -2.46243,-0.40303 -3.60621,-0.73082 -1.14371,-0.32778 -2.21793,-0.74148 -3.19294,-1.22509 -0.97295,-0.47827 -1.84683,-1.02098 -2.61291,-1.60128 -0.76459,-0.575 -1.42182,-1.18213 -1.97797,-1.7571 -0.27609,-0.2955 -0.52812,-0.58033 -0.75436,-0.84902 -0.22667,-0.26869 -0.44325,-0.54804 -0.57798,-0.72534 -0.32998,-0.45131 -0.58403,-0.86516 -0.75291,-1.14451 -0.17076,-0.28483 -0.2578,-0.44065 -0.2578,-0.44065 0,0 0.0649,0.16663 0.20232,0.47827 0.13689,0.30631 0.34367,0.74697 0.6238,1.25205 l 0.0159,0.0274 0.006,0.0107 c -0.0735,-0.10815 -0.0202,-0.0274 -0.0346,-0.0533 l 0.002,0.005 0.002,0.0108 0.0375,0.0594 0.0764,0.1188 0.12104,0.20426 c 0.0893,0.14013 0.18459,0.29017 0.28777,0.44066 0.20692,0.30098 0.43719,0.62328 0.697,0.95107 0.51847,0.6609 1.15394,1.3541 1.91852,2.02577 0.76459,0.66624 1.65975,1.31115 2.67085,1.87532 1.01258,0.55885 2.14269,1.03713 3.35002,1.40787 0.98059,0.2955 2.01356,0.5159 3.06991,0.66091 -0.27249,0.032 -0.54239,0.0746 -0.81431,0.096 -0.51443,-0.064 -1.02843,-0.15583 -1.53673,-0.26336 -1.5352,-0.31697 -3.02619,-0.80607 -4.39467,-1.46164 -1.36793,-0.65557 -2.61138,-1.4723 -3.67535,-2.39117 -1.06647,-0.91345 -1.95815,-1.92369 -2.67493,-2.90702 l -0.0764,-0.10815 c 0.008,0.0107 -0.0231,-0.0381 0.0187,0.0274 l -0.004,-0.005 -0.008,-0.0108 -0.0159,-0.0213 -0.0317,-0.0487 -0.12104,-0.1773 c -0.0793,-0.12338 -0.15663,-0.24721 -0.2343,-0.36541 -0.15102,-0.24173 -0.291797,-0.48894 -0.424947,-0.72534 -0.26384,-0.47827 -0.49411,-0.93492 -0.69081,-1.35943 -0.39339,-0.84369 -0.64758,-1.54755 -0.81228,-2.03653 -0.16067,-0.47828 -0.23431,-0.74697 -0.23431,-0.74697 0,0 0.0476,0.26869 0.17278,0.77378 0.12248,0.50508 0.32797,1.24123 0.66544,2.13325 0.16874,0.44598 0.36904,0.92959 0.60752,1.43468 0.12105,0.25254 0.25016,0.51041 0.38936,0.77377 0.0692,0.12947 0.141217,0.26336 0.218017,0.39222 l 0.11528,0.19877 0.0303,0.0487 0.006,0.0168 c 0.006,0.005 -0.0274,-0.0487 -0.0117,-0.0213 l 0.004,0.005 0.0159,0.0274 0.0692,0.10814 c 0.6751,1.06394 1.54689,2.17624 2.619,3.19182 1.0721,1.02098 2.35112,1.9398 3.775,2.67597 0.72078,0.37074 1.47522,0.69853 2.2535,0.97255 -0.50636,-0.0274 -1.0146,-0.064 -1.52707,-0.12338 -0.0908,-0.0107 -0.18243,-0.0213 -0.27393,-0.0274 -0.10808,-0.0487 -0.21601,-0.0914 -0.32538,-0.14013 -0.97094,-0.41918 -1.90833,-0.92426 -2.79031,-1.50459 -0.88145,-0.59115 -1.70144,-1.25738 -2.44821,-1.97743 -0.7447,-0.72001 -1.41577,-1.49926 -2.003397,-2.29983 -0.29583,-0.39222 -0.55608,-0.81673 -0.8022,-1.23057 -0.24655,-0.41918 -0.47278,-0.8382 -0.67769,-1.25738 -0.82756,-1.6765 -1.37197,-3.30465 -1.64603,-4.71787 -0.13833,-0.70934 -0.21254,-1.35943 -0.22825,-1.93443 -0.0202,-0.58033 0.0159,-1.08008 0.0749,-1.48311 0.0576,-0.40304 0.1369,-0.70935 0.19871,-0.91878 0.0634,-0.20959 0.1052,-0.31164 0.10376,-0.31164 0.002,0 -0.0461,0.10205 -0.11961,0.30097 -0.0764,0.20959 -0.17493,0.5159 -0.2562,0.91894 -0.0807,0.41369 -0.14266,0.91344 -0.15707,1.50459 -0.0117,0.59114 0.0274,1.25738 0.13689,1.98817 0.21457,1.46163 0.68879,3.15956 1.4676,4.91667 0.19425,0.44065 0.40867,0.88131 0.64715,1.32729 0.11672,0.22025 0.2405,0.44066 0.37105,0.66091 l 0.10231,0.16115 0.1052,0.17196 c 0.0692,0.10815 0.13833,0.20959 0.21456,0.32246 0.57956,0.85968 1.251057,1.69263 2.007467,2.47178 0.75637,0.78459 1.59825,1.50459 2.50564,2.14399 0.1673,0.11881 0.33402,0.22573 0.50276,0.33845 -0.75075,-0.18263 -1.49149,-0.40837 -2.21843,-0.67705 -0.14265,-0.10815 -0.28358,-0.21492 -0.42091,-0.33312 -1.33997,-1.08542 -2.456327,-2.31057 -3.345947,-3.51959 l -0.0749,-0.10814 -0.0994,-0.14013 -0.15707,-0.23107 c -0.10519,-0.15079 -0.20433,-0.30631 -0.29785,-0.46213 -0.18863,-0.2955 -0.36342,-0.59648 -0.52611,-0.89197 -0.32379,-0.58033 -0.5957,-1.13918 -0.83015,-1.64963 -0.46673,-1.03165 -0.76862,-1.90758 -0.96128,-2.51476 -0.18863,-0.61262 -0.2699,-0.96722 -0.2699,-0.96722 0,0 0.0591,0.36008 0.20837,0.9887 0.15101,0.63409 0.4052,1.53141 0.81848,2.6061 0.20433,0.54271 0.45045,1.11771 0.7483,1.73024 0.15102,0.31164 0.31414,0.62861 0.49052,0.94574 0.0893,0.16663 0.18502,0.32778 0.28214,0.48893 l 0.15102,0.25255 0.0403,0.064 0.0591,0.0853 0.072,0.11271 c 0.42855,0.65025 0.91143,1.29501 1.46353,1.93443 0.21254,0.25255 0.4346,0.49976 0.66905,0.74149 -0.96287,-0.49443 -1.88038,-1.08009 -2.73237,-1.7786 -0.20433,-0.17197 -0.39901,-0.34393 -0.59585,-0.5159 l -0.0173,-0.0274 c -0.52005,-0.74148 -0.8718,-1.34328 -1.10827,-1.7571 -0.2343,-0.41369 -0.35131,-0.63943 -0.35131,-0.63943 0,0 0.0965,0.24173 0.29785,0.67705 0.14122,0.30631 0.33143,0.70935 0.59585,1.18747 -1.74974,-1.7571 -3.11973,-3.9226 -4.01137,-6.29228 -2.08475,-5.55611 -1.95969,-12.149297 0.58201,-17.560344 1.20726,-2.57386 2.97434,-4.884439 5.25988,-6.469592 2.480217,-1.719496 5.349837,-2.482515 8.296727,-2.498646 0.0533,0 0.0663,0.09139 0.01,0.09139 -2.04103,0.01075 -4.12829,0.445985 -5.97715,1.370248 -4.001217,2.015022 -10.347427,9.075698 -5.393057,13.433544 2.10303,1.85384 6.985707,3.72378 5.11346,7.08217 0.311687,-0.16664 0.748307,-0.12338 1.052357,0.18263 0.36903,0.37607 0.18243,1.73561 0.11528,2.22997 -0.0807,0.61262 -0.2003,1.21976 -0.29944,1.81622 0.0259,-0.0701 0.049,-0.14013 0.0793,-0.21492 0.55204,-1.32729 1.99172,-2.80493 3.48474,-2.2622 0.0476,0.41917 -0.0331,0.78991 -0.25823,1.07475 1.44013,-0.98336 1.18594,5.65283 1.42183,6.08808 -0.14482,-2.12787 1.75533,-0.0108 2.16251,0.37607 1.04875,0.99403 2.40296,1.56368 3.74907,1.86996 6.41993,1.49378 12.42097,-2.22997 17.8359,-5.35731 0.49253,-0.28483 0.98116,-0.56418 1.4676,-0.85968 0.0303,-0.0168 0.0504,-0.032 0.0677,-0.0426 0.002,0 0.004,0 0.004,0 0.11528,-0.0701 0.22623,-0.13404 0.33964,-0.20426 0.22422,-0.14013 0.45045,-0.27935 0.67308,-0.41369 0.93895,-0.58566 1.86869,-1.17132 2.79389,-1.77322 1.84682,-1.19828 3.69314,-2.39117 5.53235,-3.60019 3.57013,-2.34819 7.13263,-4.7931 10.88575,-6.808135 3.48271,-1.869955 7.11688,-3.422862 11.02862,-3.895732 3.72314,-0.451316 7.77213,-0.144701 11.09825,1.83771 1.58858,0.945739 3.04044,2.224597 4.12067,3.777517 1.22109,1.76786 2.04509,3.84737 2.48379,5.98063 0.93534,4.54591 0.0576,9.38735 -2.17421,13.36907"
       style="fill:#392c2f;fill-opacity:1;fill-rule:nonzero;stroke:none;stroke-width:0.522644"
       id="path14447" />
    <path
       d="m 172.47175,101.39637 c -1.47523,0.23106 -2.86506,0.58033 -4.00323,1.01017 -1.1417,0.41917 -2.01511,0.90811 -2.57937,1.30566 -0.5617,0.3977 -0.83779,0.67172 -0.83981,0.67172 0.002,0 0.23633,-0.31697 0.7584,-0.7791 0.26629,-0.23107 0.60391,-0.49975 1.02281,-0.76844 0.42293,-0.27402 0.92108,-0.55352 1.48894,-0.81673 1.14025,-0.5159 2.55801,-0.9564 4.07898,-1.22509 0.29786,-0.0594 0.6019,-0.10205 0.90538,-0.1447 0.085,-0.064 0.17493,-0.12947 0.27393,-0.18263 -0.20433,0.0168 -0.40867,0.0381 -0.61357,0.0594 -1.88241,0.19344 -3.77651,0.61795 -5.34376,1.27352 -0.78389,0.32779 -1.48488,0.70934 -2.06897,1.11238 -0.58158,0.40303 -1.04615,0.82754 -1.39588,1.21975 -0.34929,0.38689 -0.58562,0.73082 -0.73663,0.97803 -0.15304,0.24722 -0.22465,0.39771 -0.22465,0.39771 0,0 0.0576,-0.15583 0.18906,-0.4137 0.13113,-0.25787 0.34108,-0.62861 0.66689,-1.05312 0.32379,-0.41918 0.76862,-0.89197 1.34054,-1.34329 0.57193,-0.4568 1.26879,-0.89197 2.05932,-1.26804 1.57639,-0.76296 3.51675,-1.2682 5.44644,-1.488448 0.0476,-0.01074 0.0908,-0.01074 0.13977,-0.02133 l -0.26644,-0.177297 c -0.8754,0.07464 -1.76296,0.198774 -2.64289,0.381555 -1.19718,0.24722 -2.37704,0.62329 -3.44915,1.12837 -1.07008,0.49976 -2.02729,1.14452 -2.77609,1.89145 -0.75032,0.73615 -1.28046,1.56366 -1.60841,2.32132 -0.32941,0.75229 -0.47481,1.42401 -0.54801,1.88607 -0.0764,0.46746 -0.0836,0.73082 -0.0879,0.73082 0.004,0 -0.002,-0.26336 0.0461,-0.73082 0.0504,-0.46213 0.15663,-1.14451 0.45088,-1.93981 0.29382,-0.7791 0.79399,-1.67114 1.53675,-2.4664 0.73663,-0.80606 1.69991,-1.52074 2.78574,-2.07951 1.08434,-0.56419 2.28604,-0.98337 3.50913,-1.268204 0.66487,-0.155821 1.33853,-0.27935 2.00544,-0.354595 l -0.28013,-0.182628 c -0.0476,-0.01075 -0.0966,-0.01075 -0.14482,-0.01075 -1.62823,0.161152 -3.24072,0.515899 -4.66611,1.085417 -0.87382,0.34393 -1.67247,0.76296 -2.35723,1.23057 -0.68937,0.46213 -1.2551,0.97255 -1.68618,1.45082 -0.43461,0.47295 -0.73462,0.91345 -0.92526,1.21443 -0.19266,0.31164 -0.28416,0.49442 -0.28416,0.49442 0,0 0.0778,-0.18811 0.24857,-0.51041 0.17277,-0.31697 0.44281,-0.77911 0.85205,-1.28967 0.40665,-0.51042 0.95105,-1.06394 1.6262,-1.57979 0.66905,-0.5159 1.4671,-0.99403 2.34502,-1.39173 0.95105,-0.42984 1.98967,-0.762958 3.0699,-0.999507 -0.25822,-0.0594 -0.51645,-0.118808 -0.77626,-0.166636 -0.59584,0.118808 -1.17181,0.263357 -1.71566,0.440655 -0.70709,0.220251 -1.36029,0.483608 -1.93427,0.762958 -0.57596,0.27935 -1.06806,0.58033 -1.47116,0.84369 -0.39958,0.27402 -0.70709,0.52123 -0.91344,0.69853 -0.20693,0.17196 -0.31212,0.27935 -0.31212,0.27935 0,0 0.098,-0.10815 0.28618,-0.30632 0.19064,-0.19344 0.47279,-0.46213 0.85552,-0.77377 0.37768,-0.30631 0.85407,-0.644758 1.41418,-0.972546 0.55766,-0.327787 1.20524,-0.644759 1.91189,-0.918931 0.2526,-0.09596 0.51039,-0.188112 0.77885,-0.274019 -0.8241,-0.140132 -1.65417,-0.209589 -2.50616,-0.07007 -2.86555,0.445986 -5.74891,3.342276 -6.63242,6.190186 -0.83981,2.70283 -0.19468,6.21167 1.84887,8.06551 0.89169,0.8114 2.21791,1.56904 3.42728,1.20895 0.66343,-0.19878 1.87276,-1.15 0.89168,-1.57442 -0.37509,1.48312 -3.75111,-0.88664 -0.90134,-2.35356 2.3628,-1.21443 6.92625,-0.74148 6.47127,-4.7716 0.15865,0.27402 0.55002,0.18263 0.92309,-0.0487 0.63548,-0.39771 0.53432,-1.28419 0.71113,-1.92368 0.149,-0.52656 0.31169,-1.18747 0.60132,-1.73561 -0.0908,0.0168 -0.18242,0.0274 -0.27609,0.0426"
       style="fill:#392c2f;fill-opacity:1;fill-rule:nonzero;stroke:none;stroke-width:0.522644"
       id="path14449" />
    <path
       d="m 171.32797,115.37801 c -0.41068,-0.19877 -0.83779,-0.0108 -1.05639,0.48361 -0.2918,0.66091 0.21456,0.8705 0.5444,1.40254 0.53778,0.87583 1.35021,1.7571 1.68365,2.77268 0.0418,-0.14013 0.0879,-0.27402 0.12681,-0.40836 0.37725,-1.26271 0.59786,-2.38044 0.72698,-3.1757 0.1268,-0.80058 0.17277,-1.27353 0.17493,-1.27353 -0.002,0 0.006,0.4728 -0.0418,1.28419 -0.0562,0.80607 -0.18099,1.95593 -0.48287,3.27241 -0.0908,0.40303 -0.2003,0.81672 -0.32739,1.24656 0.0288,0.3386 0.0288,0.67172 0,0.98869 0.37725,-0.90278 0.68677,-1.82695 0.92727,-2.71358 0.48244,-1.76248 0.69283,-3.39599 0.76257,-4.56203 0.0735,-1.17147 0.0274,-1.88069 0.0317,-1.88069 -0.004,0 0.0966,0.69853 0.10519,1.87532 0.008,1.17147 -0.10519,2.83179 -0.5104,4.65875 -0.40304,1.81622 -1.10811,3.79901 -2.14878,5.52388 -0.10663,0.18263 -0.22061,0.36008 -0.33344,0.53205 l 0.23027,-0.032 c 0.6238,-0.89197 1.17526,-1.89681 1.6384,-2.94463 0.52005,-1.17681 0.92727,-2.41266 1.22512,-3.62706 0.29584,-1.21443 0.48245,-2.40729 0.57193,-3.50347 0.0893,-1.10156 0.0836,-2.10638 0.0274,-2.94463 -0.0576,-0.8382 -0.17032,-1.51525 -0.26384,-1.98279 -0.0951,-0.46213 -0.16874,-0.72001 -0.16672,-0.72001 -0.002,0 0.0879,0.24721 0.20634,0.70934 0.11961,0.4568 0.26788,1.12837 0.36746,1.96668 0.10086,0.8382 0.15663,1.85383 0.11095,2.96613 -0.0418,1.1177 -0.18041,2.33207 -0.43878,3.58407 -0.26024,1.24657 -0.64153,2.52552 -1.14991,3.75065 -0.33964,0.8114 -0.73663,1.60664 -1.18549,2.34819 0.17291,-0.1447 0.34367,-0.28484 0.51644,-0.43533 0.94155,-1.55292 1.63842,-3.26166 2.10508,-4.86294 0.54801,-1.86996 0.78635,-3.60019 0.8718,-4.84684 0.0807,-1.25738 0.0331,-2.0204 0.036,-2.0204 -0.002,0 0.10087,0.75763 0.0994,2.01504 -0.002,1.25205 -0.13833,3.00911 -0.60954,4.9328 -0.23646,0.96722 -0.55406,1.96666 -0.96531,2.96613 -0.0749,0.17729 -0.15649,0.36007 -0.23791,0.5427 0.24396,-0.26869 0.48042,-0.54804 0.70868,-0.8382 0.27047,-0.59648 0.50276,-1.18747 0.69902,-1.75173 0.50636,-1.44549 0.79254,-2.73507 0.95725,-3.6593 0.16067,-0.91893 0.21052,-1.46697 0.21254,-1.46697 -0.002,0 0.006,0.54271 -0.0793,1.47763 -0.085,0.92959 -0.27191,2.2461 -0.69902,3.74529 -0.0216,0.064 -0.0418,0.14013 -0.0663,0.20959 1.17728,-1.86458 1.98357,-3.97634 2.28147,-6.16869 0.36759,-2.70283 0.12681,-5.72807 -1.3979,-8.04939 -0.4408,-0.67172 -2.69068,-3.20256 -3.28851,-1.5368 0.93131,-0.0381 1.61859,0.56418 1.20942,1.5368 -0.40866,0.97803 -2.16607,1.23591 -2.93062,1.79473 -2.31145,1.6765 -3.14362,5.06713 -0.77885,6.81887"
       style="fill:#392c2f;fill-opacity:1;fill-rule:nonzero;stroke:none;stroke-width:0.522644"
       id="path14451" />
  </g>
</svg>
